<svg id="svg" version="1.1" xmlns="http://www.w3.org/2000/svg" xmlns:xlink="http://www.w3.org/1999/xlink" viewBox="0, 0, 400,87.8740157480315"><g id="svgg"><path id="path0" d="M0.000 43.917 L 0.000 87.833 44.917 87.833 L 89.833 87.833 89.833 43.917 L 89.833 0.000 44.917 0.000 L 0.000 0.000 0.000 43.917 M107.082 43.917 C 107.082 68.117,107.101 77.992,107.125 65.862 C 107.149 53.731,107.149 33.931,107.125 21.862 C 107.101 9.792,107.082 19.717,107.082 43.917 M316.500 43.917 L 316.500 87.833 358.250 87.833 L 400.000 87.833 400.000 43.917 L 400.000 0.000 358.250 0.000 L 316.500 0.000 316.500 43.917 M144.707 28.831 C 144.593 29.013,144.503 29.257,144.507 29.373 C 144.510 29.489,144.625 29.377,144.762 29.125 L 145.011 28.667 150.013 28.667 L 155.016 28.667 155.338 29.375 C 155.515 29.765,155.661 29.993,155.663 29.883 C 155.668 29.599,155.289 28.773,155.087 28.628 C 154.629 28.298,144.921 28.488,144.707 28.831 M47.000 28.914 C 56.566 30.135,62.333 36.459,62.333 45.726 C 62.333 54.090,57.177 60.558,49.083 62.345 C 46.364 62.945,30.410 63.363,30.089 62.842 C 30.008 62.712,29.990 55.865,30.000 29.292 L 30.000 28.667 37.542 28.668 C 43.184 28.669,45.566 28.731,47.000 28.914 M371.227 29.208 C 371.348 29.887,371.344 34.611,371.222 34.930 C 371.145 35.130,369.919 35.167,363.412 35.167 C 359.167 35.167,355.575 35.212,355.430 35.268 C 355.106 35.392,355.031 40.298,355.348 40.615 C 355.467 40.733,356.114 40.766,357.223 40.710 C 360.565 40.541,364.388 41.139,366.652 42.187 C 367.638 42.642,369.830 44.216,369.836 44.473 C 369.837 44.534,370.070 44.846,370.353 45.167 C 372.588 47.700,372.808 53.062,370.835 56.917 C 369.728 59.079,367.237 61.372,365.151 62.149 C 364.839 62.266,364.340 62.466,364.042 62.594 C 361.523 63.680,354.560 63.969,350.833 63.142 C 348.625 62.653,347.158 62.244,346.375 61.901 L 345.500 61.518 345.500 57.846 L 345.500 54.173 345.920 54.068 C 346.221 53.992,346.664 54.129,347.477 54.548 C 348.444 55.047,349.602 55.540,351.083 56.083 C 355.133 57.567,360.677 56.851,362.339 54.630 C 363.090 53.626,363.468 51.287,363.027 50.373 C 362.950 50.214,362.780 49.860,362.648 49.587 C 361.496 47.202,355.763 46.318,349.671 47.585 C 348.528 47.823,347.422 47.975,347.213 47.922 L 346.833 47.827 346.833 38.247 L 346.833 28.667 358.981 28.667 L 371.130 28.667 371.227 29.208 M261.575 35.167 C 261.575 38.512,261.598 39.881,261.625 38.208 C 261.652 36.535,261.652 33.798,261.625 32.125 C 261.598 30.452,261.575 31.821,261.575 35.167 M144.000 30.530 C 144.000 30.577,143.775 31.239,143.499 32.002 C 143.224 32.764,143.037 33.426,143.083 33.472 C 143.129 33.518,143.167 33.517,143.167 33.470 C 143.167 33.423,143.392 32.761,143.667 31.998 C 143.943 31.236,144.130 30.574,144.084 30.528 C 144.038 30.482,144.000 30.483,144.000 30.530 M156.333 32.035 C 156.333 32.234,157.050 34.006,157.107 33.948 C 157.189 33.866,156.653 32.284,156.478 32.092 C 156.398 32.005,156.333 31.979,156.333 32.035 M142.590 34.423 C 142.429 34.843,142.333 35.222,142.375 35.264 C 142.417 35.306,142.583 34.997,142.744 34.577 C 142.904 34.157,143.001 33.778,142.958 33.736 C 142.916 33.694,142.750 34.003,142.590 34.423 M39.167 35.149 L 38.750 35.265 38.701 45.174 C 38.675 50.624,38.700 55.413,38.757 55.816 L 38.861 56.548 42.055 56.450 C 45.291 56.352,45.855 56.265,47.500 55.618 C 54.658 52.800,55.309 40.332,48.500 36.471 C 46.494 35.334,41.199 34.584,39.167 35.149 M149.667 37.968 C 149.667 38.058,149.785 38.177,149.931 38.232 C 150.093 38.295,150.169 38.257,150.129 38.136 C 150.045 37.886,149.667 37.749,149.667 37.968 M158.500 37.905 C 158.500 37.955,158.681 38.466,158.902 39.040 C 159.123 39.614,159.434 40.441,159.593 40.879 C 159.752 41.316,159.908 41.647,159.941 41.614 C 159.974 41.581,159.767 40.923,159.482 40.152 C 159.196 39.381,158.924 38.580,158.878 38.373 C 158.804 38.040,158.500 37.665,158.500 37.905 M140.737 39.434 C 140.680 39.608,140.450 40.228,140.226 40.812 C 140.002 41.396,139.858 41.913,139.905 41.961 C 139.953 42.009,140.039 41.906,140.096 41.732 C 140.153 41.559,140.383 40.939,140.607 40.355 C 140.831 39.771,140.976 39.254,140.928 39.206 C 140.880 39.158,140.794 39.261,140.737 39.434 M150.525 39.667 C 150.525 39.804,150.664 40.217,150.833 40.583 C 151.003 40.950,151.142 41.137,151.142 41.000 C 151.142 40.862,151.003 40.450,150.833 40.083 C 150.664 39.717,150.525 39.529,150.525 39.667 M148.750 40.500 C 148.687 40.697,148.674 40.896,148.720 40.942 C 148.765 40.988,148.854 40.864,148.917 40.667 C 148.979 40.470,148.993 40.271,148.947 40.225 C 148.901 40.179,148.813 40.303,148.750 40.500 M148.085 42.537 C 147.356 44.709,147.150 45.419,147.297 45.245 C 147.492 45.015,148.711 41.322,148.621 41.233 C 148.580 41.192,148.339 41.779,148.085 42.537 M151.167 41.537 C 151.167 41.588,151.508 42.632,151.926 43.856 C 152.344 45.081,152.721 46.188,152.763 46.316 C 152.806 46.443,152.875 46.514,152.917 46.472 C 152.959 46.430,152.619 45.319,152.162 44.002 C 151.421 41.869,151.167 41.239,151.167 41.537 M139.583 42.500 C 139.521 42.697,139.507 42.896,139.553 42.942 C 139.599 42.988,139.687 42.864,139.750 42.667 C 139.813 42.470,139.826 42.271,139.780 42.225 C 139.735 42.179,139.646 42.303,139.583 42.500 M160.338 42.833 C 160.338 42.971,160.411 43.196,160.500 43.333 C 160.644 43.556,160.662 43.556,160.662 43.333 C 160.662 43.196,160.589 42.971,160.500 42.833 C 160.356 42.611,160.338 42.611,160.338 42.833 M138.441 45.710 C 138.053 46.725,138.117 46.918,138.515 45.936 C 138.696 45.489,138.816 45.093,138.780 45.058 C 138.744 45.022,138.591 45.315,138.441 45.710 M147.019 45.611 C 147.009 45.718,146.951 45.943,146.892 46.111 C 146.808 46.348,146.831 46.374,146.991 46.226 C 147.105 46.121,147.162 45.896,147.118 45.726 C 147.075 45.556,147.030 45.504,147.019 45.611 M161.441 45.833 C 161.500 46.061,161.688 46.549,161.858 46.916 C 162.028 47.283,162.119 47.396,162.059 47.167 C 162.000 46.939,161.812 46.451,161.642 46.084 C 161.472 45.717,161.381 45.604,161.441 45.833 M137.895 47.125 C 137.843 47.285,137.692 47.707,137.560 48.062 C 137.428 48.418,137.351 48.740,137.390 48.779 C 137.429 48.818,137.552 48.603,137.662 48.300 C 137.995 47.390,138.148 46.833,138.066 46.833 C 138.024 46.833,137.947 46.965,137.895 47.125 M162.186 47.833 C 162.189 47.971,162.336 48.383,162.512 48.750 C 162.688 49.117,162.786 49.234,162.729 49.011 C 162.572 48.401,162.179 47.548,162.186 47.833 M261.500 55.300 L 261.583 62.750 261.627 55.427 C 261.651 51.399,261.613 48.046,261.543 47.977 C 261.474 47.907,261.454 51.202,261.500 55.300 M145.929 48.929 C 145.867 49.173,145.849 49.405,145.889 49.444 C 145.928 49.483,146.010 49.316,146.071 49.071 C 146.133 48.827,146.151 48.595,146.111 48.556 C 146.072 48.517,145.990 48.684,145.929 48.929 M153.690 48.833 C 153.690 48.971,153.755 49.233,153.833 49.417 C 153.924 49.627,153.977 49.658,153.977 49.500 C 153.977 49.362,153.912 49.100,153.833 48.917 C 153.743 48.707,153.690 48.676,153.690 48.833 M136.936 49.769 C 136.587 50.792,136.698 50.902,137.077 49.910 C 137.237 49.490,137.332 49.109,137.286 49.064 C 137.241 49.019,137.083 49.336,136.936 49.769 M162.938 49.833 C 163.094 50.461,163.473 51.285,163.474 51.000 C 163.475 50.862,163.331 50.450,163.155 50.083 C 162.978 49.717,162.881 49.604,162.938 49.833 M163.838 52.333 C 163.838 52.471,163.911 52.696,164.000 52.833 C 164.144 53.056,164.162 53.056,164.162 52.833 C 164.162 52.696,164.089 52.471,164.000 52.333 C 163.856 52.111,163.838 52.111,163.838 52.333 M135.607 53.377 C 135.220 54.392,135.283 54.585,135.682 53.603 C 135.863 53.156,135.982 52.760,135.947 52.724 C 135.911 52.689,135.758 52.982,135.607 53.377 M164.198 53.348 C 164.247 53.477,164.569 54.355,164.914 55.298 C 165.259 56.242,165.571 56.985,165.606 56.950 C 165.641 56.915,165.407 56.180,165.086 55.318 C 164.764 54.456,164.501 53.661,164.501 53.552 C 164.500 53.442,164.412 53.299,164.305 53.232 C 164.181 53.156,164.142 53.198,164.198 53.348 M135.071 54.768 C 135.014 54.941,134.859 55.374,134.727 55.729 C 134.594 56.084,134.516 56.405,134.552 56.441 C 134.588 56.477,134.780 56.082,134.979 55.563 C 135.178 55.043,135.303 54.581,135.258 54.535 C 135.212 54.490,135.128 54.594,135.071 54.768 M143.542 56.110 C 143.427 56.157,143.336 56.319,143.338 56.472 C 143.343 56.723,143.360 56.721,143.513 56.458 C 143.802 55.962,156.096 56.015,156.254 56.513 C 156.314 56.703,156.400 56.822,156.445 56.777 C 157.100 56.122,145.054 55.500,143.542 56.110 M134.103 57.436 C 133.754 58.459,133.865 58.569,134.244 57.577 C 134.404 57.157,134.498 56.776,134.453 56.731 C 134.408 56.686,134.250 57.003,134.103 57.436 M156.505 57.167 C 156.505 57.304,156.578 57.529,156.667 57.667 C 156.810 57.889,156.828 57.889,156.828 57.667 C 156.828 57.529,156.756 57.304,156.667 57.167 C 156.523 56.944,156.505 56.944,156.505 57.167 M142.625 58.538 C 142.484 58.930,142.127 59.962,141.831 60.833 C 141.535 61.704,141.217 62.567,141.126 62.750 C 140.993 63.016,141.002 63.043,141.170 62.885 C 141.386 62.681,143.047 57.991,142.941 57.885 C 142.908 57.852,142.766 58.146,142.625 58.538 M156.838 58.167 C 156.838 58.304,156.911 58.529,157.000 58.667 C 157.144 58.889,157.162 58.889,157.162 58.667 C 157.162 58.529,157.089 58.304,157.000 58.167 C 156.856 57.944,156.838 57.944,156.838 58.167 M166.005 58.167 C 166.005 58.304,166.078 58.529,166.167 58.667 C 166.310 58.889,166.328 58.889,166.328 58.667 C 166.328 58.529,166.256 58.304,166.167 58.167 C 166.023 57.944,166.005 57.944,166.005 58.167 M166.358 59.167 C 166.358 59.304,166.497 59.717,166.667 60.083 C 166.836 60.450,166.975 60.637,166.975 60.500 C 166.975 60.362,166.836 59.950,166.667 59.583 C 166.497 59.217,166.358 59.029,166.358 59.167 M132.907 60.601 C 132.852 60.775,132.737 61.089,132.653 61.300 C 132.569 61.510,132.504 61.773,132.509 61.883 C 132.514 61.993,132.667 61.717,132.848 61.270 C 133.030 60.822,133.140 60.418,133.093 60.371 C 133.046 60.324,132.962 60.428,132.907 60.601 M167.000 60.848 C 167.000 60.893,167.144 61.338,167.319 61.836 C 167.495 62.335,167.603 62.801,167.560 62.872 C 167.516 62.942,167.565 63.000,167.668 63.000 C 167.857 63.000,167.836 62.870,167.451 61.667 C 167.286 61.149,167.000 60.630,167.000 60.848 M132.278 62.278 C 132.126 62.430,132.137 63.000,132.292 63.000 C 132.360 63.000,132.417 62.813,132.417 62.583 C 132.417 62.354,132.410 62.167,132.403 62.167 C 132.395 62.167,132.339 62.217,132.278 62.278 " stroke="none" fill="#f34334" fill-rule="evenodd"></path><path id="path1" d="M209.500 43.917 L 209.500 87.833 255.083 87.833 L 300.667 87.833 300.667 43.917 L 300.667 0.000 255.083 0.000 L 209.500 0.000 209.500 43.917 M248.627 34.875 L 248.671 41.167 255.002 41.167 C 258.484 41.167,261.335 41.110,261.337 41.042 C 261.338 40.973,261.342 38.204,261.345 34.888 C 261.350 30.102,261.396 28.822,261.571 28.677 C 261.721 28.552,263.183 28.508,266.187 28.539 L 270.583 28.583 270.583 45.750 L 270.583 62.917 266.000 62.917 L 261.417 62.917 261.417 55.458 L 261.417 48.000 255.043 48.000 L 248.670 48.000 248.627 55.458 L 248.583 62.917 244.083 62.917 L 239.583 62.917 239.538 46.083 C 239.512 36.825,239.533 29.080,239.583 28.872 L 239.674 28.495 244.129 28.539 L 248.583 28.583 248.627 34.875 " stroke="none" fill="#fbeb3c" fill-rule="evenodd"></path><path id="path2" d="M107.167 43.917 L 107.167 87.833 150.417 87.833 L 193.667 87.833 193.667 43.917 L 193.667 0.000 150.417 0.000 L 107.167 0.000 107.167 43.917 M300.749 43.917 C 300.749 68.117,300.768 77.992,300.792 65.862 C 300.815 53.731,300.815 33.931,300.792 21.862 C 300.768 9.792,300.749 19.717,300.749 43.917 M155.093 28.628 C 155.190 28.695,155.366 29.012,155.485 29.333 C 155.603 29.654,155.760 30.067,155.833 30.250 C 155.906 30.433,156.056 30.846,156.167 31.167 C 156.277 31.488,156.433 31.900,156.513 32.083 C 156.594 32.267,156.853 32.979,157.089 33.667 C 157.326 34.354,157.582 35.067,157.660 35.250 C 157.737 35.433,157.965 36.033,158.167 36.583 C 158.368 37.133,158.593 37.733,158.667 37.917 C 158.740 38.100,158.951 38.662,159.135 39.167 C 159.543 40.288,160.583 43.118,161.002 44.250 C 161.172 44.708,161.808 46.433,162.415 48.083 C 163.979 52.329,164.182 52.875,164.335 53.250 C 164.410 53.433,164.895 54.746,165.412 56.167 C 166.595 59.417,166.995 60.496,167.175 60.917 C 167.341 61.307,167.833 62.808,167.833 62.925 C 167.833 62.969,165.723 62.985,163.145 62.961 L 158.456 62.917 158.159 62.000 C 157.786 60.847,156.539 57.235,156.303 56.625 L 156.126 56.167 149.902 56.167 C 144.142 56.167,143.667 56.188,143.531 56.458 C 143.450 56.619,142.946 58.063,142.411 59.667 C 141.875 61.271,141.367 62.677,141.282 62.792 C 140.996 63.173,132.167 63.084,132.167 62.700 C 132.167 62.535,132.226 62.329,132.299 62.242 C 132.372 62.155,132.527 61.783,132.644 61.417 C 132.857 60.745,132.975 60.429,133.299 59.667 C 133.396 59.438,133.823 58.275,134.248 57.083 C 134.673 55.892,135.084 54.767,135.161 54.583 C 135.340 54.156,135.753 53.041,136.919 49.833 C 137.435 48.413,137.920 47.100,137.996 46.917 C 138.125 46.605,138.366 45.955,139.151 43.792 C 139.902 41.723,140.702 39.559,140.829 39.250 C 140.905 39.067,141.056 38.654,141.167 38.333 C 141.277 38.012,141.427 37.600,141.501 37.417 C 141.574 37.233,141.785 36.671,141.970 36.167 C 142.155 35.662,142.582 34.500,142.919 33.583 C 143.256 32.667,143.681 31.504,143.865 31.000 C 144.221 30.023,144.439 29.479,144.717 28.875 L 144.890 28.500 149.903 28.503 C 152.661 28.504,154.996 28.560,155.093 28.628 M244.040 28.623 L 248.496 28.672 248.543 34.794 L 248.589 40.917 248.586 34.750 L 248.583 28.583 244.083 28.579 L 239.583 28.575 244.040 28.623 M261.536 28.697 C 261.425 28.809,261.341 29.091,261.350 29.325 C 261.366 29.717,261.381 29.708,261.541 29.208 L 261.715 28.667 266.109 28.667 L 270.503 28.667 270.460 45.825 C 270.436 55.262,270.473 62.927,270.542 62.858 C 270.612 62.788,270.649 55.048,270.626 45.658 L 270.583 28.583 266.161 28.539 C 262.861 28.506,261.687 28.546,261.536 28.697 M239.580 45.833 C 239.580 55.229,239.600 59.073,239.625 54.375 C 239.650 49.677,239.650 41.990,239.625 37.292 C 239.600 32.594,239.580 36.438,239.580 45.833 M261.408 35.333 C 261.408 38.221,261.430 39.402,261.458 37.958 C 261.486 36.515,261.486 34.152,261.458 32.708 C 261.430 31.265,261.408 32.446,261.408 35.333 M149.667 38.419 C 149.667 38.558,149.594 38.801,149.505 38.961 C 149.416 39.120,148.927 40.525,148.418 42.083 C 147.909 43.642,147.420 45.047,147.330 45.206 C 147.240 45.365,147.167 45.631,147.167 45.798 C 147.167 45.964,147.105 46.171,147.029 46.258 C 146.953 46.345,146.790 46.754,146.666 47.167 C 146.542 47.579,146.399 47.992,146.347 48.083 C 146.295 48.175,146.170 48.569,146.069 48.958 L 145.885 49.667 149.859 49.667 C 152.340 49.667,153.833 49.605,153.833 49.504 C 153.833 49.305,153.046 46.880,152.831 46.417 C 152.656 46.038,150.683 40.259,150.556 39.750 C 150.510 39.567,150.410 39.267,150.335 39.083 C 150.259 38.900,150.155 38.619,150.104 38.458 C 149.989 38.101,149.667 38.072,149.667 38.419 M248.576 48.042 C 248.532 48.156,248.517 51.550,248.542 55.583 L 248.587 62.917 248.627 55.460 L 248.667 48.004 255.042 47.958 L 261.417 47.913 255.036 47.873 C 250.056 47.842,248.639 47.879,248.576 48.042 M261.408 55.000 C 261.408 57.979,261.430 59.198,261.458 57.708 C 261.486 56.219,261.486 53.781,261.458 52.292 C 261.430 50.802,261.408 52.021,261.408 55.000 M261.333 62.129 C 261.333 62.506,261.401 62.856,261.484 62.907 C 261.570 62.960,261.596 62.696,261.545 62.292 C 261.425 61.353,261.333 61.283,261.333 62.129 " stroke="none" fill="#fb9407" fill-rule="evenodd"></path></g></svg>